<svg version="1" xmlns="http://www.w3.org/2000/svg" width="933.333" height="933.333" viewBox="0 0 700.000000 700.000000"><path d="M337.6 23c-9.4 1.5-19.9 4.8-38.9 12.1-29.3 11.3-28 11-71.7 17.9-15.5 2.5-26.5 5.7-36.4 10.7-14 7-22.3 14.7-41.9 38.3-16.4 19.9-24.4 27.9-44.2 44.5-26.6 22.3-33.7 29.9-40.8 44.1-6.2 12.4-8.4 20.7-13.2 49.9-3.4 21.2-7.2 34.9-15.6 57.7-10.4 28.3-12.2 35.6-12.2 51.3-.1 16.3 1.5 23.2 12.3 51.5 11.8 31 11 27.9 18 72 4.5 27.9 12.2 44.4 28.3 60.2 3.4 3.4 13.9 12.5 23.2 20.3 19 15.9 28.2 25.1 40.5 40.5 19.5 24.5 29.8 34.1 43.8 41.3 14 7.1 21.4 9.2 51.7 14.2 21.2 3.4 34.9 7.2 57.7 15.6 28.3 10.4 35.6 12.2 51.3 12.2 16.3.1 23.2-1.5 51.8-12.4 27.4-10.4 34-12.3 60.7-16.9 32.8-5.7 43.8-9.3 58-19.1 7.3-5 21.1-19.3 35.3-36.4 13.2-16.1 24.8-27.6 39.7-39.5 24.3-19.4 33.1-28.8 40.3-42.8 6.3-12.2 9-21.5 13.2-46.2 4.7-28 7.2-37.4 16.2-61.4 15.1-40.6 16.1-51.6 7.8-85.6-3.4-13.8-15.3-51.5-16.1-50.8-.2.2.5 3.5 1.6 7.2 5.8 20.5 8.4 42.4 6.9 58.6-1.9 20.3-4.5 26.8-21.3 51.9-15.1 22.6-16.1 25.1-21.6 59.1-1.7 10.2-3.9 21.8-5 25.7-5.9 21.2-15.6 33.8-42.5 55.3-17.7 14.2-22.9 19.2-36.3 35.5-19.6 23.8-31.5 35-43.9 41.3-6.9 3.6-20.2 6.9-40 10.2-29.9 4.8-30.3 5-63.8 17.8-20.1 7.7-24.9 8.7-40.5 8.7-15.6 0-20.4-1-40.5-8.7-33.5-12.8-33.9-13-63.8-17.8-42.5-7-53.5-13.4-80.7-47.5-14.6-18.3-18.3-22-37.5-38C89.9 494 84.4 484.9 78 442.9c-4.1-26.7-5.3-31-15.6-57.7-14.6-37.8-15-52.9-2.4-85.7 10.4-26.9 13.9-38.6 16.5-55.5 5.3-33.9 7.6-42.1 15.4-55.4 5.7-9.9 15.7-20.1 32.6-33.6 18.1-14.5 23.7-20 40-39.5 19.5-23.4 28.1-31.3 41-37.6 11.3-5.5 21.1-8 49.5-12.4 16.9-2.7 29.3-6.3 55.4-16.4 20.8-8.1 22.9-8.4 53.1-8.9 23.8-.3 44.7.5 55.5 2.3 5.6.9-35.3-14.3-45.8-17.1-10.8-2.8-26.4-3.8-35.6-2.4zM423.8 43.7c.7.3 1.6.2 1.9-.1.4-.3-.2-.6-1.3-.5-1.1 0-1.4.3-.6.6zM476.2 74.3l-3.2 3.3 3.8 3.7 3.8 3.7 3.4-3.5 3.4-3.5-3.4-3.5c-1.9-1.9-3.7-3.5-4-3.5-.3 0-2 1.5-3.8 3.3z"/><path d="M284.7 92.8L270 107.5l14.8 14.8 14.7 14.7 14.8-14.8 14.7-14.7-14.8-14.8L299.5 78l-14.8 14.8zM525.5 111l-6.8 6.9 6.8 7.6 6.8 7.7 7.5-7.5c4.1-4.1 7.2-7.9 6.8-8.5-.3-.5-3.7-3.7-7.4-7l-6.9-6.1-6.8 6.9zM544 140.5l-3.4 3.5 3.7 3.8 3.7 3.7 3.7-3.7 3.7-3.8-3.4-3.5c-1.9-1.9-3.7-3.5-4-3.5-.3 0-2.1 1.6-4 3.5zM259.2 165.3L248 176.5l11 11 11 11 11.3-11.3 11.2-11.2-11-11-11-11-11.3 11.3zM196 185.1c-19.7 2.5-44.4 15.4-59.8 31.2-9 9.4-10.6 12.8-10.6 23.2.1 13.5 5.7 26.4 16.6 38.1 6.8 7.2 14 11.2 28.8 16 11.8 3.7 25.3 4 32.2.6 7.3-3.6 13.6-9.8 19.9-19.5 9.8-14.8 18.6-46.1 15.8-56.1-2.4-8.5-16.7-25.6-25.9-30.8-5.6-3.2-8.8-3.7-17-2.7zM620.7 190.8l-3.7 3.8 3.8 3.7 3.8 3.7 3.7-3.8 3.7-3.8-3.8-3.7-3.8-3.7-3.7 3.8zM599.7 190.8c-1.5 1.5-2.7 3.3-2.7 3.8 0 .6 1.5 2.5 3.4 4.3l3.3 3.2 3.2-3.6 3.1-3.6-2.6-3.4c-3.2-4.2-4.2-4.3-7.7-.7zM614 218.5l-3.4 3.5 3.7 3.8 3.7 3.7 3.7-3.7 3.7-3.8-3.4-3.5c-1.9-1.9-3.7-3.5-4-3.5-.3 0-2.1 1.6-4 3.5zM462.7 263.8l-5.7 5.8 5.8 5.7 5.8 5.7 5.2-5.3c2.9-2.9 5.2-5.7 5.2-6.3 0-.5-2.4-3.3-5.3-6.2l-5.3-5.2-5.7 5.8zM566.1 276.5c-12.1 3.1-15.7 5.5-20.5 13.7-5.4 9.2-6.9 21.4-3.8 30.5 5.4 15.4 18.9 23.3 35.4 20.5 8.8-1.5 20.1-6.6 24.6-11.2 4.1-4 8.5-12.7 10.2-20 1.9-8.1 1.5-21.4-.8-25.3-5.8-10.1-24.3-13.4-45.1-8.2zM171.5 355l-11 11 11 11 11 11 11-11 11-11-11-11-11-11-11 11zM473.5 349.1c-7.2 1.1-14.4 3.8-24.5 9.4-11.3 6.2-15.8 9.3-17.4 11.7-3.9 6.4-5.4 28-2.4 35 2.8 6.3 15.4 14.9 28.2 19.2 12.7 4.3 28.6 5.8 36.7 3.6 12.6-3.5 22.7-21.8 21.7-39.3-.4-7.2-1-9.4-5-17.7-9-18.6-19.3-24.7-37.3-21.9zM547.2 374.3L536 385.5l11 11 11 11 11.3-11.3 11.2-11.2-11-11-11-11-11.3 11.3zM364.7 414.8L350 429.5l15 15 15 15 14.7-14.8 14.8-14.7-15-15-15-15-14.8 14.8zM155.2 412.3c-2.8 2.9-5.2 5.7-5.2 6.3 0 .5 2.5 3.4 5.5 6.4l5.5 5.5 5.8-5.8 5.7-5.7-6-6-6-6-5.3 5.3zM228.4 470.4c-13.1 5.2-20.6 10.6-23.5 17-2.3 5.1-2.4 13.7-.3 22 3.2 12.9 14.1 30.4 20.3 32.8 4.4 1.6 16.3 2.6 22.5 1.7 5.1-.7 6.5-1.4 10.2-5 9-8.8 14.3-22.9 15.1-39.9.5-10.4.3-12-1.6-15.7-6.2-12.3-27.8-18.8-42.7-12.9zM390.2 479.3L379 490.5l11 11 11 11 11.3-11.3 11.2-11.2-11-11-11-11-11.3 11.3zM459.7 495.8L449 506.5l11.3 11.3 11.2 11.2 11-11 11-11-11-11c-6-6.1-11.2-11-11.5-11-.3 0-5.4 4.8-11.3 10.8z"/></svg>